<svg xmlns="http://www.w3.org/2000/svg" width="1000" height="720" viewBox="0 0 1000 720">
  <defs>
    <linearGradient id="phone" x1="0" y1="0" x2="0" y2="1">
      <stop offset="0" stop-color="#123b66"/><stop offset="1" stop-color="#0a2647"/>
    </linearGradient>
    <linearGradient id="scr" x1="0" y1="0" x2="0" y2="1">
      <stop offset="0" stop-color="#eaf3fc"/><stop offset="1" stop-color="#d6e8fa"/>
    </linearGradient>
  </defs>
  <!-- máquina de lavar ao fundo -->
  <rect x="80" y="150" width="360" height="430" rx="28" fill="#e7eef6" stroke="#c4dcf5" stroke-width="4"/>
  <circle cx="260" cy="380" r="120" fill="#ffffff" stroke="#9fbfe0" stroke-width="10"/>
  <circle cx="260" cy="380" r="82" fill="#cfe2f7"/>
  <circle cx="260" cy="380" r="82" fill="none" stroke="#1e6fd6" stroke-width="5" stroke-dasharray="18 12"/>
  <rect x="110" y="185" width="300" height="70" rx="14" fill="#ffffff" stroke="#c4dcf5"/>
  <circle cx="370" cy="220" r="16" fill="#1e6fd6"/>
  <rect x="130" y="212" width="150" height="16" rx="8" fill="#9fbfe0"/>
  <!-- celular na frente com ficha -->
  <rect x="470" y="90" width="360" height="560" rx="46" fill="url(#phone)"/>
  <rect x="492" y="120" width="316" height="500" rx="26" fill="url(#scr)"/>
  <rect x="492" y="120" width="316" height="86" rx="26" fill="#0b3a67"/>
  <text x="650" y="165" text-anchor="middle" font-family="Segoe UI, Arial" font-size="26" font-weight="800" fill="#ffffff">DIAGNÓSTICO</text>
  <text x="650" y="192" text-anchor="middle" font-family="Segoe UI, Arial" font-size="16" fill="#9fd0ff">Não centrifuga</text>
  <rect x="520" y="230" width="260" height="52" rx="12" fill="#e8f1fb" stroke="#c4dcf5"/>
  <text x="540" y="263" font-family="Segoe UI, Arial" font-size="18" font-weight="700" fill="#0b3a67">Verificar primeiro</text>
  <rect x="520" y="300" width="120" height="90" rx="12" fill="#ffffff" stroke="#c4dcf5"/>
  <rect x="660" y="300" width="120" height="90" rx="12" fill="#ffffff" stroke="#c4dcf5"/>
  <circle cx="580" cy="335" r="18" fill="#e8f1fb" stroke="#1e6fd6" stroke-width="2"/>
  <circle cx="720" cy="335" r="18" fill="#e8f1fb" stroke="#1e6fd6" stroke-width="2"/>
  <rect x="530" y="370" width="100" height="7" rx="3" fill="#dbe7f4"/>
  <rect x="670" y="370" width="100" height="7" rx="3" fill="#dbe7f4"/>
  <rect x="520" y="410" width="80" height="44" rx="9" fill="#0b3a67"/>
  <rect x="618" y="410" width="80" height="44" rx="9" fill="#1e6fd6"/>
  <rect x="716" y="410" width="64" height="44" rx="9" fill="#2f8f4e"/>
  <rect x="520" y="480" width="260" height="9" rx="4" fill="#d6efdd"/>
  <rect x="520" y="500" width="200" height="9" rx="4" fill="#d6efdd"/>
  <rect x="520" y="540" width="260" height="52" rx="14" fill="#1e6fd6"/>
  <text x="650" y="573" text-anchor="middle" font-family="Segoe UI, Arial" font-size="18" font-weight="800" fill="#ffffff">PRÓXIMO SINTOMA →</text>
</svg>
